<svg width="76.11" height="21.3" viewBox="0 0 76.11 21.3" xmlns="http://www.w3.org/2000/svg"><g id="svgGroup" stroke-linecap="round" fill-rule="evenodd" font-size="9pt" stroke="#000" stroke-width="0.25mm" fill="#000" style="stroke:#000;stroke-width:0.25mm;fill:#000"><path d="M 38.52 21 L 38.01 21 A 0.812 0.812 0 0 1 37.802 20.975 A 0.591 0.591 0 0 1 37.53 20.82 A 0.602 0.602 0 0 1 37.363 20.491 A 0.859 0.859 0 0 1 37.35 20.34 L 37.35 6.06 A 0.812 0.812 0 0 1 37.375 5.852 A 0.591 0.591 0 0 1 37.53 5.58 A 0.602 0.602 0 0 1 37.859 5.413 A 0.859 0.859 0 0 1 38.01 5.4 L 38.52 5.4 A 0.812 0.812 0 0 1 38.728 5.425 A 0.591 0.591 0 0 1 39 5.58 A 0.602 0.602 0 0 1 39.167 5.909 A 0.859 0.859 0 0 1 39.18 6.06 L 39.18 7.11 Q 39.93 6.15 40.965 5.625 Q 41.939 5.131 43.299 5.102 A 8.02 8.02 0 0 1 43.47 5.1 Q 46.83 5.1 48.27 7.92 A 5.127 5.127 0 0 1 50.285 5.871 A 6.058 6.058 0 0 1 50.295 5.865 A 5.783 5.783 0 0 1 52.525 5.148 A 7.284 7.284 0 0 1 53.37 5.1 A 5.918 5.918 0 0 1 55.234 5.387 A 5.358 5.358 0 0 1 56.235 5.835 A 4.986 4.986 0 0 1 58.002 7.577 A 6.184 6.184 0 0 1 58.245 8.01 A 6.257 6.257 0 0 1 58.773 9.518 Q 58.98 10.463 58.98 11.61 L 58.98 20.34 A 0.812 0.812 0 0 1 58.955 20.548 A 0.591 0.591 0 0 1 58.8 20.82 A 0.602 0.602 0 0 1 58.471 20.987 A 0.859 0.859 0 0 1 58.32 21 L 57.81 21 A 0.812 0.812 0 0 1 57.602 20.975 A 0.591 0.591 0 0 1 57.33 20.82 A 0.602 0.602 0 0 1 57.163 20.491 A 0.859 0.859 0 0 1 57.15 20.34 L 57.15 11.91 A 11.102 11.102 0 0 0 57.094 10.759 Q 57.037 10.21 56.92 9.753 A 4.273 4.273 0 0 0 56.58 8.836 A 4.082 4.082 0 0 0 56.046 8.039 A 3.01 3.01 0 0 0 55.08 7.29 Q 54.15 6.84 53.07 6.84 A 3.912 3.912 0 0 0 51.818 7.053 A 4.945 4.945 0 0 0 51.24 7.29 A 3.212 3.212 0 0 0 50.201 8.104 A 4.49 4.49 0 0 0 49.695 8.835 A 4.107 4.107 0 0 0 49.32 9.781 Q 49.193 10.254 49.133 10.826 A 10.438 10.438 0 0 0 49.08 11.91 L 49.08 20.34 A 0.812 0.812 0 0 1 49.055 20.548 A 0.591 0.591 0 0 1 48.9 20.82 A 0.602 0.602 0 0 1 48.571 20.987 A 0.859 0.859 0 0 1 48.42 21 L 47.91 21 A 0.812 0.812 0 0 1 47.702 20.975 A 0.591 0.591 0 0 1 47.43 20.82 A 0.602 0.602 0 0 1 47.263 20.491 A 0.859 0.859 0 0 1 47.25 20.34 L 47.25 11.91 A 10.552 10.552 0 0 0 47.191 10.759 Q 47.063 9.588 46.65 8.835 A 4.3 4.3 0 0 0 46.097 8.039 A 3.124 3.124 0 0 0 45.12 7.29 Q 44.19 6.84 43.17 6.84 A 3.912 3.912 0 0 0 41.918 7.053 A 4.945 4.945 0 0 0 41.34 7.29 A 3.212 3.212 0 0 0 40.301 8.104 A 4.49 4.49 0 0 0 39.795 8.835 A 4.123 4.123 0 0 0 39.42 9.777 Q 39.293 10.247 39.233 10.811 A 10.166 10.166 0 0 0 39.18 11.88 L 39.18 20.34 A 0.812 0.812 0 0 1 39.155 20.548 A 0.591 0.591 0 0 1 39 20.82 A 0.602 0.602 0 0 1 38.671 20.987 A 0.859 0.859 0 0 1 38.52 21 Z M 1.2 21 L 0.66 21 A 0.812 0.812 0 0 1 0.452 20.975 A 0.591 0.591 0 0 1 0.18 20.82 A 0.602 0.602 0 0 1 0.013 20.491 A 0.859 0.859 0 0 1 0 20.34 L 0 0.69 A 0.974 0.974 0 0 1 0.019 0.49 Q 0.046 0.363 0.109 0.267 A 0.55 0.55 0 0 1 0.18 0.18 A 0.602 0.602 0 0 1 0.509 0.013 A 0.859 0.859 0 0 1 0.66 0 L 1.2 0 A 0.974 0.974 0 0 1 1.4 0.019 Q 1.527 0.046 1.623 0.109 A 0.55 0.55 0 0 1 1.71 0.18 Q 1.879 0.349 1.889 0.649 A 1.159 1.159 0 0 1 1.89 0.69 L 1.89 9.45 L 13.47 9.45 L 13.47 0.69 A 0.974 0.974 0 0 1 13.489 0.49 Q 13.516 0.363 13.579 0.267 A 0.55 0.55 0 0 1 13.65 0.18 A 0.602 0.602 0 0 1 13.979 0.013 A 0.859 0.859 0 0 1 14.13 0 L 14.67 0 A 0.974 0.974 0 0 1 14.87 0.019 Q 14.997 0.046 15.093 0.109 A 0.55 0.55 0 0 1 15.18 0.18 Q 15.349 0.349 15.359 0.649 A 1.159 1.159 0 0 1 15.36 0.69 L 15.36 20.34 A 0.812 0.812 0 0 1 15.335 20.548 A 0.591 0.591 0 0 1 15.18 20.82 Q 15.012 20.989 14.712 20.999 A 1.159 1.159 0 0 1 14.67 21 L 14.13 21 A 0.812 0.812 0 0 1 13.922 20.975 A 0.591 0.591 0 0 1 13.65 20.82 A 0.602 0.602 0 0 1 13.483 20.491 A 0.859 0.859 0 0 1 13.47 20.34 L 13.47 11.25 L 1.89 11.25 L 1.89 20.34 A 0.812 0.812 0 0 1 1.865 20.548 A 0.591 0.591 0 0 1 1.71 20.82 Q 1.542 20.989 1.242 20.999 A 1.159 1.159 0 0 1 1.2 21 Z M 76.11 12.84 L 76.11 13.29 A 0.747 0.747 0 0 1 76.08 13.506 A 0.581 0.581 0 0 1 75.915 13.77 A 0.672 0.672 0 0 1 75.53 13.944 A 0.909 0.909 0 0 1 75.42 13.95 L 64.74 13.95 L 64.74 14.07 L 64.74 14.25 Q 64.8 15.6 65.37 16.815 Q 65.94 18.03 66.99 18.795 A 3.985 3.985 0 0 0 68.997 19.537 A 5.07 5.07 0 0 0 69.48 19.56 Q 70.493 19.56 71.238 19.32 A 3.592 3.592 0 0 0 71.625 19.17 A 6.987 6.987 0 0 0 72.24 18.854 Q 72.542 18.678 72.783 18.489 A 3.606 3.606 0 0 0 72.99 18.315 A 9.87 9.87 0 0 0 73.221 18.098 Q 73.53 17.797 73.645 17.618 A 0.889 0.889 0 0 0 73.65 17.61 Q 73.92 17.22 74.07 17.145 A 0.536 0.536 0 0 1 74.175 17.107 Q 74.284 17.079 74.446 17.072 A 2.53 2.53 0 0 1 74.55 17.07 L 75.03 17.07 A 0.738 0.738 0 0 1 75.303 17.119 A 0.685 0.685 0 0 1 75.495 17.235 A 0.469 0.469 0 0 1 75.628 17.412 Q 75.675 17.523 75.661 17.661 A 0.689 0.689 0 0 1 75.66 17.67 A 1.204 1.204 0 0 1 75.597 17.967 Q 75.503 18.246 75.274 18.591 A 4.83 4.83 0 0 1 75.195 18.705 Q 74.76 19.32 73.965 19.92 Q 73.17 20.52 72.03 20.91 A 7.167 7.167 0 0 1 70.52 21.243 A 9.161 9.161 0 0 1 69.48 21.3 Q 66.57 21.3 64.86 19.395 Q 63.15 17.49 62.91 14.4 Q 62.881 13.971 62.88 13.268 A 36.557 36.557 0 0 1 62.88 13.2 Q 62.88 12.45 62.91 12 A 10.336 10.336 0 0 1 63.248 9.996 A 8.205 8.205 0 0 1 63.87 8.4 A 6.14 6.14 0 0 1 65.491 6.4 A 5.967 5.967 0 0 1 66.105 5.97 A 5.88 5.88 0 0 1 68.285 5.189 A 7.731 7.731 0 0 1 69.48 5.1 A 7.903 7.903 0 0 1 71.168 5.272 A 5.804 5.804 0 0 1 73.05 6.03 A 5.87 5.87 0 0 1 75.05 8.176 A 7.297 7.297 0 0 1 75.315 8.7 Q 76.086 10.388 76.109 12.698 A 14.319 14.319 0 0 1 76.11 12.84 Z M 24.941 21.157 A 8.586 8.586 0 0 0 26.55 21.3 Q 27.512 21.3 28.334 21.122 A 5.783 5.783 0 0 0 30.165 20.4 Q 31.62 19.5 32.385 17.94 A 7.76 7.76 0 0 0 32.864 16.706 A 8.939 8.939 0 0 0 33.21 14.46 A 9.232 9.232 0 0 0 33.22 14.291 Q 33.24 13.868 33.24 13.2 Q 33.24 12.39 33.21 11.94 Q 33.15 9.99 32.385 8.445 Q 31.62 6.9 30.165 6 Q 29.29 5.459 28.159 5.243 A 8.586 8.586 0 0 0 26.55 5.1 Q 25.588 5.1 24.766 5.278 A 5.783 5.783 0 0 0 22.935 6 Q 21.48 6.9 20.715 8.445 A 7.602 7.602 0 0 0 20.181 9.874 A 9.138 9.138 0 0 0 19.89 11.94 A 9.232 9.232 0 0 0 19.88 12.109 Q 19.86 12.532 19.86 13.2 Q 19.86 14.01 19.89 14.46 A 9.754 9.754 0 0 0 19.95 15.283 A 8.118 8.118 0 0 0 20.715 17.94 Q 21.48 19.5 22.935 20.4 Q 23.81 20.941 24.941 21.157 Z M 26.55 19.56 A 5.318 5.318 0 0 0 28.169 19.324 A 4.313 4.313 0 0 0 29.97 18.21 A 4.569 4.569 0 0 0 31.025 16.439 Q 31.257 15.747 31.34 14.909 A 9.436 9.436 0 0 0 31.38 14.31 A 11.864 11.864 0 0 0 31.398 13.943 Q 31.404 13.778 31.407 13.592 A 24.907 24.907 0 0 0 31.41 13.2 A 24.126 24.126 0 0 0 31.406 12.735 Q 31.402 12.553 31.396 12.392 A 11.403 11.403 0 0 0 31.38 12.09 Q 31.316 10.25 30.626 9.043 A 4.173 4.173 0 0 0 29.97 8.175 Q 28.65 6.84 26.55 6.84 A 5.382 5.382 0 0 0 24.945 7.069 A 4.321 4.321 0 0 0 23.13 8.175 Q 22.01 9.308 21.775 11.337 A 9.427 9.427 0 0 0 21.72 12.09 A 11.864 11.864 0 0 0 21.702 12.457 Q 21.696 12.622 21.693 12.808 A 24.907 24.907 0 0 0 21.69 13.2 A 24.126 24.126 0 0 0 21.694 13.665 Q 21.698 13.847 21.704 14.008 A 11.403 11.403 0 0 0 21.72 14.31 Q 21.786 16.191 22.522 17.419 A 4.251 4.251 0 0 0 23.13 18.21 A 4.432 4.432 0 0 0 25.967 19.533 A 6.051 6.051 0 0 0 26.55 19.56 Z M 64.74 12.15 L 64.74 12.27 L 74.28 12.27 L 74.28 12.15 A 6.784 6.784 0 0 0 74.1 10.557 A 5.664 5.664 0 0 0 73.71 9.45 Q 73.14 8.25 72.06 7.545 A 4.298 4.298 0 0 0 70.339 6.903 A 5.666 5.666 0 0 0 69.48 6.84 A 5.326 5.326 0 0 0 68.215 6.984 A 4.091 4.091 0 0 0 66.915 7.545 Q 65.85 8.25 65.295 9.45 A 6.017 6.017 0 0 0 64.784 11.327 A 7.477 7.477 0 0 0 64.74 12.15 Z" vector-effect="non-scaling-stroke"/></g></svg>